<svg width="191" height="74" viewBox="0 0 191 74" fill="none" xmlns="http://www.w3.org/2000/svg">
<g clip-path="url(#clip0_299_28)">
<path fill-rule="evenodd" clip-rule="evenodd" d="M27.4446 32.4289V36.6199C27.4205 39.2063 27.5167 40.9545 27.6851 41.17C27.8773 41.4335 27.9736 41.4574 28.0457 41.2179C28.0938 41.0505 28.2622 40.9305 28.3825 40.9305C28.5271 40.9303 29.032 40.6192 29.5369 40.26C30.018 39.9008 30.86 39.3979 31.3651 39.1344C32.0144 38.7992 32.7601 38.6555 33.6502 38.6794C34.54 38.7034 35.3338 38.8949 35.959 39.2302C36.4882 39.5176 37.138 39.8768 37.4023 40.0445C37.6669 40.1882 37.9313 40.3797 38.0035 40.4516C38.0756 40.5234 38.4124 40.7629 38.7973 41.0024C39.1581 41.2179 39.4949 41.3137 39.5671 41.2179C39.6392 41.1214 39.6152 40.02 39.543 38.7752C39.4227 36.8117 39.4708 36.3804 39.8798 35.6619C40.1203 35.2069 40.6974 34.6322 41.1545 34.3927C41.804 34.0816 42.5981 33.9856 47.8652 33.9856L48.7072 34.7519C49.2843 35.2788 49.6451 35.8775 49.8135 36.6199C49.9578 37.2186 50.1262 38.0089 50.1984 38.416C50.2705 38.7994 50.5832 40.6434 50.896 42.4872C51.329 45.0731 51.4009 45.8876 51.1606 46.0076C50.9922 46.1034 50.487 46.1992 50.0302 46.1992C49.1883 46.1992 49.188 46.1752 48.8994 44.8341C48.731 44.0678 48.4426 42.7746 48.2982 41.9364C48.0579 40.7871 47.8893 40.4518 47.5766 40.4516C47.24 40.4516 47.1197 40.7153 46.9995 41.6969C46.9273 42.3919 46.9271 46.6305 46.9752 51.1085C47.0233 55.5866 47.1679 59.5618 47.2638 59.9694C47.4082 60.5441 47.312 60.8315 46.7589 61.5021C46.374 61.9568 45.4118 62.6276 44.618 63.0108C43.8246 63.37 43.1032 63.6811 43.0065 63.6814C42.8862 63.6814 42.4535 63.825 42.0445 64.0166C41.6118 64.1843 40.385 64.5435 39.3265 64.783C37.8113 65.1422 36.4642 65.238 33.0728 65.238C29.6815 65.214 28.3582 65.1183 26.9392 64.783C25.9531 64.5435 24.823 64.2082 24.4138 64.0406C24.0291 63.8729 23.1632 63.5377 22.4897 63.3221C21.8404 63.1066 20.8542 62.8671 20.325 62.7953C19.5313 62.6755 19.2423 62.7716 18.6411 63.2503C17.9196 63.849 17.9196 63.849 18.3284 64.6632C18.5449 65.1183 18.9779 65.717 19.2906 66.0043C19.6033 66.2917 20.2767 66.7707 20.8058 67.0341C21.335 67.3215 22.4174 67.7286 23.2111 67.9681C24.0049 68.2076 25.2077 68.5668 25.8569 68.7344C26.6989 68.9739 28.5749 69.0697 32.1106 69.0697C36.1995 69.0697 37.4745 68.9739 38.8454 68.6386C39.7836 68.3992 41.5153 67.8723 42.6938 67.4652C43.8966 67.0581 45.3399 66.5312 45.941 66.2678C46.5427 66.0283 48.0579 65.3098 49.3086 64.6872C50.5592 64.0885 52.5074 63.0345 53.638 62.3403C54.7684 61.6697 56.2839 60.6876 57.0294 60.1849C57.751 59.6578 59.146 58.6522 60.0839 57.9338C61.0461 57.2153 62.8501 55.5629 64.1009 54.2697C65.3513 53.0007 66.4338 52.0428 66.5062 52.1862C66.5782 52.3062 66.1452 53.3839 65.544 54.581C64.9426 55.7545 64.1729 57.1914 63.812 57.7422C63.4755 58.317 62.7057 59.4186 62.1046 60.2089C61.5032 60.9992 60.0361 62.6276 58.8333 63.849C57.6308 65.0704 55.7787 66.6988 54.7205 67.4652C53.6621 68.2315 52.4115 69.0937 51.9544 69.3571C51.4974 69.6445 50.2465 70.2911 49.1883 70.8179C48.1301 71.3448 46.6627 71.9433 45.941 72.159C45.2196 72.3983 44.4017 72.6619 44.1369 72.7817C43.8723 72.8775 42.6938 73.1649 41.4913 73.4043C39.8317 73.7636 38.2681 73.8594 34.6362 73.8594C30.9562 73.8594 29.5369 73.7636 28.0217 73.4283C26.9635 73.1888 25.8812 72.9014 25.6164 72.7817C25.3518 72.6859 24.6544 72.4704 24.0531 72.3027C23.4517 72.1351 22.1047 71.5843 21.0464 71.0814C19.9882 70.5784 18.6894 69.9081 18.1602 69.5966C17.6311 69.3092 16.4524 68.5429 15.5143 67.9441C14.6003 67.3215 12.9167 65.9325 11.7862 64.8309C10.6558 63.7293 9.28479 62.3642 8.75557 61.7655C8.20237 61.1668 7.50476 60.2568 7.16801 59.7299C6.83126 59.203 6.42239 58.6043 6.22997 58.3888C6.03755 58.1972 5.67672 57.6464 5.43619 57.1914C5.17158 56.7361 4.40188 55.2516 3.70439 53.8626C3.03093 52.4736 2.14085 50.3182 1.756 49.0729C1.34712 47.8276 0.914236 46.2471 0.74586 45.6004C0.601544 44.9299 0.385101 43.493 0.24079 42.3674C0.120529 41.2419 1.62476e-06 39.4458 0 36.3804L1.756 37.937C2.6938 38.775 3.55955 39.4695 3.68019 39.4937C3.77665 39.4939 4.20965 39.7334 4.64241 40.0445C5.05137 40.3558 6.97561 41.3856 8.89981 42.3195C10.824 43.2296 12.8685 44.2115 13.4699 44.4749C14.0712 44.7383 14.8168 45.0257 15.1535 45.1215C15.4904 45.2173 16.5246 45.6723 17.4385 46.1034C18.3766 46.5344 19.4589 46.8937 20.5653 46.9176L20.3729 45.4089C20.2767 44.5946 20.2047 42.3911 20.2047 37.0988H19.6033C19.2666 37.0988 18.9541 37.2188 18.9058 37.3862C18.8577 37.5541 18.7373 38.2246 18.6411 38.8949C18.5689 39.5415 18.4005 40.4037 18.2802 40.8108C18.184 41.194 18.0158 41.8166 17.9436 42.1759C17.7993 42.7985 17.7269 42.8464 16.789 42.7746C15.7789 42.7267 15.7548 42.7027 15.7789 41.8885C15.7789 41.4332 16.1397 39.206 16.5726 36.9791C17.0857 34.2653 17.5187 32.6447 17.8715 32.1176C18.1361 31.6865 18.7134 31.1597 19.0982 30.992C19.6034 30.7526 20.7824 30.6568 25.4961 30.6328L27.4446 32.4289ZM36.7288 42.128C36.6804 42.1282 36.5123 42.2479 36.3198 42.4153C36.0552 42.6548 35.9831 43.6848 36.0312 47.8518C36.0552 50.7014 36.1755 53.1444 36.2717 53.2881C36.3682 53.4318 36.7769 53.7191 37.1615 53.9586C37.5705 54.1742 38.653 54.6052 39.5668 54.9165C40.5047 55.2276 41.3224 55.4432 41.4429 55.3955C41.5391 55.3476 41.6113 52.8568 41.6113 49.8393V44.403C40.4088 43.8043 39.5187 43.3975 38.8452 43.1101C38.1959 42.8227 37.4502 42.4874 37.2337 42.3437C36.9931 42.224 36.7769 42.128 36.7288 42.128ZM30.3065 42.1521C30.234 42.1524 29.7051 42.4156 29.1039 42.7509C28.5028 43.0622 27.709 43.3975 27.3481 43.4693C26.9875 43.5411 26.4583 43.9001 26.1937 44.2354C26.0347 44.4529 25.925 44.6622 25.8528 44.9507C25.8981 44.6844 25.9628 44.4933 26.0494 44.3551C26.2418 44.0441 26.3137 43.8046 26.2418 43.8043C26.1456 43.8043 25.9291 43.9241 25.7366 44.0917C25.472 44.3072 25.3999 44.9778 25.448 46.8458C25.472 48.2106 25.5683 49.3601 25.6642 49.4085C25.7398 49.4384 25.7867 49.0626 25.7994 48.4647C25.8353 48.8653 25.8822 49.1467 25.9291 49.2169C26.0256 49.3606 26.4343 49.624 26.8189 49.8393C27.2278 50.0309 27.9255 50.3661 28.3823 50.5817C28.8393 50.7972 29.5129 51.0846 29.8978 51.2283C30.451 51.4199 30.5711 51.3959 30.7876 50.9888C30.9319 50.7254 31.0281 48.7616 31.0281 46.6063C31.0281 43.8043 30.956 42.6548 30.7395 42.4153C30.5711 42.2477 30.3786 42.1282 30.3065 42.1521Z" fill="#333FB2"/>
<path d="M34.2756 0.00306305C35.0694 -0.0208692 36.8492 0.0988652 38.2442 0.242545C39.6394 0.362298 41.9004 0.793457 43.2954 1.17662C44.6906 1.55978 46.1577 2.03876 46.5424 2.25429C46.9273 2.44586 47.3605 2.61352 47.5046 2.61352C47.6494 2.61371 48.3468 2.90092 49.0682 3.23608C49.7896 3.57137 51.257 4.38569 52.3154 5.00834C53.3736 5.65499 55.4662 7.18753 56.9574 8.45674C58.4241 9.72552 59.6504 10.8271 59.6514 10.9236C59.6516 11.0436 60.1568 11.6422 60.7339 12.3125C61.335 12.9592 62.4175 14.3721 63.1149 15.4258C63.8365 16.4795 64.895 18.2517 65.4961 19.3773C66.0734 20.5028 66.7468 21.9397 66.9633 22.6103C67.2038 23.2568 67.4687 23.9753 67.5889 24.1669C67.6852 24.3589 68.0939 25.8674 68.5028 27.5196C68.9115 29.172 69.3688 31.495 69.5131 32.6685C69.6334 33.8419 69.7537 35.9733 69.7537 37.3863C69.7537 38.8229 69.6572 40.188 69.5131 40.4517C69.3688 40.7151 69.1764 40.9306 69.032 40.9306C68.8877 40.9306 68.6471 40.5714 68.4547 40.1403C68.2623 39.7332 67.709 38.8232 67.2038 38.1766C66.6986 37.506 66.1216 36.8115 65.9291 36.596C65.7126 36.4044 64.7985 35.6141 63.8606 34.8717C62.9227 34.1296 62.081 33.5071 61.9364 33.5067C61.7921 33.5067 61.5272 33.339 61.335 33.1714C61.1423 32.9796 59.7233 32.1895 58.2083 31.4232C56.693 30.6568 54.7686 29.7229 53.9507 29.3636C53.1095 29.0046 52.364 28.7173 52.2671 28.717C52.1468 28.717 51.5454 28.4536 50.8721 28.1183C50.2226 27.807 49.5012 27.5438 49.3087 27.5196C49.1163 27.5196 48.7312 27.3759 48.4668 27.2083C48.2022 27.0407 47.5046 26.7533 46.9032 26.5856C46.3021 26.418 45.2196 26.0588 44.4979 25.7953C43.7765 25.508 42.8143 25.1487 42.4053 24.9811C41.9726 24.7895 41.4436 24.6461 41.2509 24.6458C41.0587 24.6458 40.8422 24.55 40.7698 24.4063C40.6976 24.2627 40.4571 24.1669 40.2406 24.1669C40 24.1429 39.3748 23.9513 38.8456 23.688C38.3169 23.4246 37.7395 23.2331 37.595 23.209C37.4266 23.209 35.9111 22.6582 34.2274 22.0116C32.5205 21.3414 31.0538 20.8147 30.9083 20.8142C30.7639 20.8142 30.4031 20.6705 30.0663 20.5029C29.7298 20.3113 29.0322 20.0478 28.503 19.8562C27.974 19.6886 26.7953 19.1856 25.8571 18.7306C24.9433 18.2756 23.7164 17.5331 23.1632 17.0781C22.3695 16.4555 22.1049 16.0484 21.9846 15.354C21.8884 14.6596 21.9847 14.2763 22.4657 13.5579C22.8025 13.0789 23.5482 12.3843 24.1254 12.0251C24.6786 11.6659 25.4725 11.1868 25.8571 10.9713C26.2422 10.7797 27.1802 10.3966 27.9016 10.1572C28.6233 9.94167 29.465 9.65415 29.7777 9.53441C30.0666 9.41464 31.4137 9.19921 32.7844 9.03159C34.6845 8.81608 35.8151 8.81606 37.8355 9.03159C39.2545 9.19921 40.6014 9.41467 40.842 9.53441C41.0587 9.65415 42.0688 9.89378 43.0548 10.0375C44.4979 10.253 44.9793 10.2529 45.5323 9.98952C45.9653 9.79791 46.278 9.41474 46.3983 8.9598C46.4945 8.55268 46.4704 7.95383 46.3261 7.54675C46.1818 7.16361 45.7969 6.61287 45.4601 6.32549C45.1236 6.06206 44.2095 5.55915 43.4157 5.24782C42.141 4.74491 41.5877 4.67297 38.605 4.67297C36.6811 4.64902 34.6845 4.79276 33.9147 4.96039C33.1933 5.12801 31.8464 5.43945 30.9083 5.65499C29.9704 5.8705 28.8638 6.18168 28.4549 6.34934C28.0221 6.54086 27.5891 6.68459 27.4927 6.68471C27.3721 6.68491 26.5545 7.04394 25.6166 7.49881C24.7027 7.92983 23.5 8.50463 22.9708 8.74417C22.4416 8.98365 21.0707 9.72604 19.8922 10.3726C18.7379 11.043 17.6075 11.7136 17.3666 11.8336C17.1501 11.9772 16.4766 12.4084 15.8754 12.7915C15.2742 13.1985 14.6246 13.6534 14.432 13.8451C14.2397 14.0366 13.8068 14.348 13.4701 14.5635C13.1333 14.779 12.1712 15.4736 11.3053 16.1202C10.4394 16.7907 8.51507 18.3954 6.99977 19.7365C5.50865 21.0535 3.92125 22.5382 3.51219 23.0413C3.10344 23.5201 2.67049 23.9271 2.52602 23.9274C2.3817 23.9274 2.3576 23.64 2.47786 23.161C2.5742 22.7298 3.34395 21.0295 4.1857 19.3773C5.00348 17.7249 6.37443 15.4737 7.24032 14.3481C8.08219 13.2226 9.74187 11.3305 10.9445 10.1331C12.1231 8.93573 13.927 7.37904 14.9131 6.66062C15.8993 5.91825 17.4868 4.91238 18.4007 4.38554C19.3147 3.88265 20.6858 3.21225 21.4074 2.90094C22.1289 2.58964 22.9467 2.25431 23.2113 2.13455C23.476 2.01478 24.1735 1.75125 24.7746 1.5597C25.376 1.39205 26.6028 1.05677 27.5408 0.841251C28.4789 0.625721 30.0425 0.362281 31.0286 0.242545C32.0148 0.122818 33.482 0.0270098 34.2756 0.00306305Z" fill="#333FB2"/>
<path d="M31.7983 33.4828C32.6879 32.5249 32.7603 32.477 33.8666 32.6207C34.5883 32.7165 35.1897 32.956 35.5505 33.3152C35.9594 33.7223 36.0795 34.1297 36.0795 34.9916C36.0795 35.9974 35.9833 36.2132 35.2378 36.8595C34.6847 37.3385 34.1315 37.578 33.6263 37.578C33.1933 37.578 32.5438 37.3624 32.183 37.099C31.7981 36.8356 31.341 36.2848 31.1486 35.9016C30.9564 35.4945 30.8121 35.0155 30.8361 34.8239C30.8602 34.6323 31.2932 34.0334 31.7983 33.4828Z" fill="#333FB2"/>
<path d="M43.6561 26.7293C43.9207 26.6814 44.2815 26.6574 44.4499 26.7053C44.5943 26.7532 44.8105 26.8009 44.9308 26.7772C45.0273 26.7774 45.5084 27.1366 45.9892 27.5674C46.8309 28.3098 46.9031 28.4538 46.9031 29.7228C46.9031 30.9439 46.8309 31.1836 46.2538 31.6626C45.8692 31.9739 45.2676 32.309 44.8586 32.405C44.4499 32.5008 43.7764 32.4768 43.2953 32.3331C42.8385 32.1894 42.2852 31.9021 42.0687 31.6626C41.8522 31.4231 41.5635 30.8962 41.4432 30.5131C41.2508 29.9862 41.2748 29.5312 41.5154 28.8367C41.7078 28.3098 41.9725 27.8069 42.1408 27.7351C42.3092 27.639 42.622 27.4238 42.8142 27.2322C43.0068 27.0166 43.3917 26.8011 43.6561 26.7293Z" fill="#333FB2"/>
<path d="M22.4897 23.4722C22.6344 23.4485 23.1875 23.6401 23.7644 23.8555C24.558 24.1907 24.919 24.502 25.2799 25.2444C25.5204 25.7713 25.7367 26.4418 25.7367 26.7292C25.7367 27.0405 25.5683 27.6632 25.3759 28.1182C25.1834 28.5732 24.6544 29.1719 24.2455 29.4354C23.8126 29.6988 23.0668 29.9143 22.6098 29.9143C22.1528 29.9143 21.4553 29.7227 21.0464 29.4833C20.6616 29.2438 20.0603 28.6211 19.7476 28.0943C19.3147 27.3998 19.2186 26.9687 19.3388 26.4418C19.4351 26.0347 19.7718 25.3642 20.0844 24.9331C20.3972 24.502 21.0225 23.9991 21.4554 23.8076C21.8883 23.64 22.3695 23.4722 22.4897 23.4722Z" fill="#333FB2"/>
<path fill-rule="evenodd" clip-rule="evenodd" d="M130.703 43.062C132.242 43.062 134.046 43.1818 134.744 43.3494C135.658 43.541 136.259 43.8523 136.885 44.475C137.366 44.9539 137.871 45.7682 138.015 46.295C138.159 46.8219 138.28 48.3306 138.28 49.6478C138.28 50.9647 138.183 52.4497 138.039 52.9526C137.919 53.4316 137.51 54.1979 137.149 54.6051C136.788 55.0122 136.115 55.5151 135.634 55.7306C135.105 55.9462 133.589 56.1377 127.937 56.3533V43.062H130.703ZM129.861 54.3658C134.143 54.3658 134.672 54.2937 135.153 53.9345C135.562 53.6232 135.874 53.0245 136.091 52.1863C136.307 51.3481 136.404 50.1749 136.307 48.8577C136.259 47.7322 136.067 46.5585 135.922 46.2711C135.778 45.9837 135.393 45.5766 135.105 45.361C134.768 45.1455 133.686 44.9542 132.267 44.8584L129.957 44.7144L129.861 54.3658Z" fill="#333FB2"/>
<path fill-rule="evenodd" clip-rule="evenodd" d="M80.673 43.1339C83.2467 43.2057 84.257 43.3255 84.8584 43.6368C85.2671 43.8523 85.7963 44.2836 85.9887 44.5708C86.1812 44.8823 86.4217 45.7205 86.518 46.4387C86.6382 47.3967 86.5661 48.0675 86.2774 48.8815C85.9406 49.8394 85.7001 50.1028 84.8584 50.5099C84.0405 50.8692 83.2948 50.9649 79.1337 50.9889L79.0134 56.1378L77.2095 56.2575L77.2576 43.0381L80.673 43.1339ZM79.1575 47.0137L79.1337 49.3125C82.7174 49.3125 83.5113 49.2167 83.8962 48.9533C84.1846 48.7617 84.4975 48.2349 84.5695 47.8038C84.6416 47.3967 84.5935 46.6543 84.4732 46.1993C84.3289 45.7442 84.0164 45.2655 83.7759 45.1458C83.5353 45.05 82.4047 44.906 81.2741 44.8342L79.2058 44.6905L79.1575 47.0137Z" fill="#333FB2"/>
<path fill-rule="evenodd" clip-rule="evenodd" d="M91.9538 43.1099C94.7678 43.1818 95.5378 43.3015 96.3074 43.6847C96.8125 43.9481 97.3896 44.4513 97.5821 44.8103C97.7505 45.1937 97.8948 46.2474 97.8948 47.2769C97.8948 49.0012 97.8707 49.0972 97.0772 49.9112C96.6201 50.3662 96.0911 50.7492 95.8746 50.7494C95.6581 50.7494 95.4897 50.8215 95.5138 50.9171C95.5143 51.0138 96.1633 52.1628 96.9569 53.4316C97.7262 54.7246 98.3757 55.8739 98.3759 56.018C98.3757 56.1378 97.9186 56.2336 96.3557 56.1378L93.445 51.1086H90.5589L90.4386 56.2575L88.6347 56.1378L88.5865 49.576L88.5625 43.0381L91.9538 43.1099ZM92.2182 44.7865C91.4006 44.7865 90.6548 44.8582 90.5346 44.93C90.4383 45.026 90.3664 46.0558 90.3905 47.2051L90.4143 49.3367C94.2386 49.3367 95.0324 49.217 95.4173 48.9775C95.8744 48.6662 95.9463 48.4025 95.9463 47.229C95.9463 46.4627 95.8744 45.7203 95.7782 45.5526C95.6819 45.385 95.1527 45.1458 94.6235 45.026C94.0945 44.8823 93.012 44.7865 92.2182 44.7865Z" fill="#333FB2"/>
<path d="M104.726 43.062C108.141 43.062 109.176 43.1341 109.176 43.3733C109.176 43.5412 109.128 43.9004 109.056 44.2115C108.96 44.7384 108.887 44.7384 102.201 44.7384V48.5701H105.448C108.55 48.5701 108.695 48.5941 108.695 49.0491C108.695 49.3123 108.647 49.6954 108.575 49.8873C108.479 50.1986 107.901 50.2465 102.201 50.2465V54.3177H105.688C107.612 54.3177 109.199 54.4137 109.2 54.5093C109.2 54.6053 109.104 55.0366 108.815 56.2575L100.276 56.2335V43.062H104.726Z" fill="#333FB2"/>
<path d="M120.721 43.062C121.249 43.062 121.682 43.1339 121.683 43.1818C121.683 43.2536 120.721 46.0318 119.542 49.3604C118.364 52.6887 117.354 55.586 117.257 55.8264C117.161 56.1377 116.848 56.2335 115.069 56.2575L112.807 49.9591C111.557 46.5113 110.499 43.5422 110.426 43.3733C110.354 43.158 110.619 43.062 112.423 43.062L114.227 48.2109C115.237 51.0595 116.126 53.2865 116.199 53.1921C116.296 53.0949 117.065 50.964 117.931 48.4504C118.772 45.9602 119.542 43.7096 119.614 43.4931C119.735 43.182 120.024 43.062 120.721 43.062Z" fill="#333FB2"/>
<path d="M145.135 43.0859C148.983 43.0859 149.584 43.1341 149.464 43.4452C149.416 43.6367 149.344 44.0199 149.344 44.2833C149.344 44.7384 149.199 44.7623 142.609 44.7623V48.594H145.857C148.646 48.594 149.103 48.6422 148.983 48.9533C148.935 49.1448 148.863 49.528 148.863 49.7914C148.863 50.2465 148.718 50.2704 142.609 50.2704V54.3416L149.464 54.4613L149.392 55.1798C149.344 55.5627 149.272 55.9698 149.2 56.0659C149.151 56.1617 147.226 56.2575 140.685 56.2575V43.0859H145.135Z" fill="#333FB2"/>
<path d="M152.543 43.0859C153.288 43.062 153.457 43.278 156.512 47.7558C158.267 50.3181 159.806 52.4255 159.927 52.4257C160.095 52.425 160.167 50.6998 160.167 43.0859H162.092L161.971 56.1377H161.13C160.312 56.1377 160.24 56.0419 153.793 46.7261L153.553 56.1377L151.749 56.2575V43.0859H152.543Z" fill="#333FB2"/>
<path d="M172.795 44.6426L170.39 44.7623C168.707 44.8581 167.793 45.002 167.336 45.2892C166.879 45.5766 166.614 46.0079 166.494 46.6063C166.421 47.1095 166.325 48.5943 166.349 49.9112C166.349 51.2283 166.47 52.6173 166.614 53.0244C166.782 53.4076 167.191 53.9105 167.552 54.1021C168.009 54.3416 168.923 54.4613 170.679 54.4613C172.507 54.4613 173.156 54.5334 173.156 54.7487C173.156 54.9166 173.06 55.3237 172.916 55.6588C172.699 56.2335 172.579 56.2575 170.751 56.2575C169.693 56.2575 168.274 56.1138 167.576 55.9701C166.71 55.7785 166.085 55.4432 165.532 54.8924C164.954 54.3177 164.69 53.7429 164.473 52.7131C164.329 51.9707 164.257 50.2225 164.305 48.8335C164.401 46.9897 164.545 46.0555 164.882 45.361C165.147 44.8583 165.628 44.2357 165.94 43.972C166.277 43.7325 166.927 43.4452 167.384 43.3254C167.865 43.2296 169.284 43.1099 172.916 43.0859L172.795 44.6426Z" fill="#333FB2"/>
<path d="M177.005 56.2575H175.081V43.0859H177.005V56.2575Z" fill="#333FB2"/>
<path fill-rule="evenodd" clip-rule="evenodd" d="M185.76 43.2057L188.237 49.6717C189.606 53.211 190.736 56.1535 190.715 56.1856C190.714 56.2335 190.256 56.2335 188.694 56.1377L187.227 52.4018L181.815 52.4258L180.492 56.2575H179.602C179.097 56.2575 178.713 56.1617 178.712 56.0659C178.713 55.9682 179.819 52.9993 181.166 49.4801L183.619 43.062L185.76 43.2057ZM184.726 45.6247C184.629 45.505 184.461 45.6726 184.317 45.9839C184.172 46.2953 183.763 47.325 183.427 48.2348L183.426 48.2377C183.089 49.1707 182.753 50.103 182.681 50.3423C182.561 50.7015 182.753 50.7494 184.581 50.7494C186.096 50.7494 186.602 50.6775 186.554 50.462C186.505 50.2941 186.096 49.1925 185.663 47.9953C185.231 46.8224 184.798 45.7452 184.726 45.6247Z" fill="#333FB2"/>
<path d="M125.291 56.2335H123.367V43.062H125.291V56.2335Z" fill="#333FB2"/>
<path d="M145.159 39.9727C146.241 39.9727 146.458 40.0687 147.276 40.8587C147.756 41.3614 148.093 41.8404 148.021 41.9364C147.925 42.0322 147.54 42.128 147.155 42.128C146.771 42.128 146.193 41.8646 145.015 40.8108L144.365 41.4574C143.932 41.9125 143.475 42.128 142.946 42.128C142.513 42.128 142.128 42.0562 142.104 41.9604C142.08 41.8643 142.465 41.3854 142.994 40.8827C143.836 40.0687 144.077 39.9727 145.159 39.9727Z" fill="#333FB2"/>
<path d="M86.9988 17.9643C91.52 17.9403 91.8814 17.9646 91.7613 18.3476C91.7132 18.5872 91.5448 19.4257 91.1121 21.6524H86.9028C82.6939 21.6524 82.6934 21.6525 82.2363 22.2511C81.972 22.5864 81.7555 23.1373 81.7555 23.4965C81.7795 23.8796 81.8757 24.3825 82.0201 24.6459C82.1403 24.9093 82.6212 25.2206 83.0302 25.3404C83.4632 25.4601 84.9065 25.7475 86.2293 25.963C87.5521 26.2025 89.0673 26.5617 89.5966 26.8012C90.1258 27.0168 90.8234 27.5197 91.1602 27.9028C91.4969 28.286 91.9297 29.0284 92.0981 29.5553C92.3146 30.1779 92.3868 31.2319 92.3146 32.5488C92.2424 34.0575 92.0979 34.7999 91.7132 35.4226C91.4486 35.8776 90.8472 36.5003 90.4142 36.7876C89.9572 37.075 88.8268 37.4821 87.9129 37.6737C86.7585 37.9372 84.8341 38.0569 81.7074 38.0569C77.5708 38.0569 77.2095 38.009 77.2095 37.6258C77.2095 37.4103 77.3538 36.5477 77.8109 34.2252H81.9479C84.6173 34.2252 86.301 34.1294 86.638 33.9378C86.9507 33.7941 87.2634 33.5546 87.3597 33.4109C87.4559 33.267 87.5521 32.7162 87.5521 32.1896C87.5521 31.663 87.4318 31.0403 87.2637 30.8006C87.0472 30.5132 86.0607 30.2258 83.9443 29.8187C82.2847 29.5074 80.5048 29.0763 79.9756 28.8368C79.4464 28.6213 78.7488 28.2142 78.4361 27.9268C78.1236 27.6394 77.7144 27.0407 77.546 26.6096C77.3536 26.1786 77.2095 25.0051 77.2095 23.8557C77.2095 22.4907 77.3538 21.6045 77.6425 20.934C77.883 20.4071 78.5082 19.6407 79.0134 19.2576C79.5186 18.8505 80.4327 18.4194 81.0338 18.2517C81.7076 18.0841 84.0888 17.9643 86.9988 17.9643Z" fill="#333FB2"/>
<path d="M102.104 17.9404C106.141 17.9404 109.434 17.9645 109.44 17.9884C109.44 18.0372 109.32 18.7074 109.176 19.4971C109.056 20.2872 108.887 21.1254 108.815 21.3411C108.719 21.7242 108.285 21.7721 99.3381 21.7721L99.4584 25.7236L103.956 25.7714C108.093 25.8433 108.478 25.8675 108.454 26.2504C108.454 26.4901 108.31 27.3286 107.853 29.5553L99.3381 29.675V33.9857H104.509C109.319 33.9857 109.681 34.0099 109.56 34.3928C109.512 34.6325 109.344 35.4707 109.2 36.2608C109.056 37.0508 108.887 37.769 108.815 37.8653C108.765 37.985 105.565 38.0569 94.7681 38.0569V17.9404H102.104Z" fill="#333FB2"/>
<path fill-rule="evenodd" clip-rule="evenodd" d="M117.811 17.9882C123.343 18.0601 123.56 18.084 124.834 18.6587C125.556 19.0179 126.374 19.5927 126.662 19.9759C126.951 20.383 127.312 21.1254 127.48 21.6523C127.673 22.251 127.745 23.4484 127.697 24.9092C127.6 26.8727 127.504 27.3279 126.975 28.1422C126.638 28.6451 125.941 29.3393 125.412 29.6509C124.907 29.9859 124.426 30.2731 124.353 30.2975C124.281 30.3454 125.243 32.0457 126.446 34.1053C127.672 36.1399 128.682 37.8637 128.683 37.937C128.682 38.0088 127.551 38.0567 123.632 38.0567L119.831 30.992L116.656 30.8723L116.536 37.937L112.086 38.0567L112.135 17.8923L117.811 17.9882ZM116.656 27.28C121.9 27.1603 122.02 27.1363 122.573 26.4897C123.054 25.9629 123.15 25.5797 123.15 24.4063C123.15 23.185 123.054 22.8736 122.549 22.3707C121.972 21.7959 121.804 21.772 119.302 21.772H116.656V27.28Z" fill="#333FB2"/>
<path d="M154.299 37.9371L149.608 38.0569V17.9404H154.419L154.299 37.9371Z" fill="#333FB2"/>
<path fill-rule="evenodd" clip-rule="evenodd" d="M163.27 17.9883C168.61 18.0601 169.043 18.1079 170.174 18.6109C170.823 18.9222 171.569 19.3533 171.809 19.5688C172.05 19.8083 172.483 20.407 172.771 20.9339C173.18 21.7241 173.276 22.323 173.276 24.4063C173.3 26.6335 173.228 27.0648 172.699 28.1183C172.338 28.8128 171.737 29.5552 171.256 29.8665C170.775 30.1778 169.861 30.585 169.211 30.7765C168.442 30.9921 166.926 31.1118 162.116 31.1118V38.0568H157.546L157.57 27.9746V17.9163L163.27 17.9883ZM162.116 27.5196C165.002 27.5196 166.277 27.3999 166.806 27.2801C167.335 27.1604 167.96 26.8251 168.201 26.5138C168.513 26.1066 168.634 25.5558 168.61 24.4542C168.61 23.1851 168.514 22.8737 168.009 22.3708C167.431 21.7961 167.263 21.7721 164.762 21.7721H162.116V27.5196Z" fill="#333FB2"/>
<path d="M190.378 18.9462C190.306 19.497 190.162 20.3352 189.897 21.6282L180.661 21.748V25.8193H185.11C187.899 25.8193 189.559 25.9151 189.56 26.0588C189.56 26.2024 189.416 27.0648 188.959 29.6749L180.661 29.651V33.9617H190.763L190.643 34.5125C190.595 34.8001 190.402 35.7343 189.921 38.0568L175.85 38.0329V17.9163H190.522L190.378 18.9462Z" fill="#333FB2"/>
<path d="M146.121 18.4912C146.073 18.7786 145.904 19.6409 145.52 21.7721H141.551C138.545 21.7721 137.366 21.868 136.74 22.1314C136.235 22.3469 135.73 22.802 135.514 23.2808C135.249 23.7837 135.081 24.9572 134.985 26.6815C134.913 28.1423 134.985 30.0821 135.129 30.9922C135.345 32.2375 135.562 32.8362 136.019 33.2672C136.572 33.842 136.813 33.8659 142.153 33.9857V30.3935H140.589C139.098 30.3935 139.026 30.3695 139.122 29.8666C139.17 29.5553 139.338 28.6929 139.747 26.5617L146.843 26.6815V31.2316C146.843 33.746 146.747 36.0927 146.65 36.4524C146.554 36.8355 146.145 37.2666 145.688 37.53C145.039 37.8653 144.269 37.9371 140.709 37.9371C137.27 37.9132 136.211 37.8174 134.936 37.4582C133.878 37.1229 133.06 36.6918 132.339 36.0213C131.641 35.3986 131.112 34.6083 130.776 33.7462C130.343 32.5967 130.27 31.9022 130.246 28.1184C130.246 24.4545 130.319 23.6161 130.703 22.4906C130.968 21.7721 131.569 20.7662 132.026 20.2394C132.507 19.7365 133.181 19.1856 133.542 18.994C133.903 18.8024 134.769 18.515 135.466 18.3235C136.356 18.0841 138.16 17.9644 146.242 17.9404L146.121 18.4912Z" fill="#333FB2"/>
</g>
<defs>
<clipPath id="clip0_299_28">
<rect width="191" height="74" fill="white"/>
</clipPath>
</defs>
</svg>
