<svg width="794" height="309" viewBox="0 0 794 309" fill="none" xmlns="http://www.w3.org/2000/svg">
<path fill-rule="evenodd" clip-rule="evenodd" d="M114.089 135.413V152.913C113.989 163.713 114.389 171.013 115.089 171.913C115.888 173.013 116.288 173.113 116.588 172.113C116.788 171.414 117.488 170.913 117.988 170.913C118.589 170.912 120.688 169.613 122.787 168.113C124.787 166.613 128.287 164.513 130.387 163.413C133.086 162.013 136.186 161.413 139.886 161.513C143.585 161.613 146.885 162.413 149.484 163.813C151.684 165.013 154.385 166.513 155.484 167.213C156.584 167.813 157.683 168.613 157.983 168.913C158.283 169.213 159.683 170.213 161.283 171.213C162.783 172.113 164.183 172.513 164.483 172.113C164.783 171.71 164.683 167.111 164.383 161.913C163.883 153.714 164.083 151.913 165.783 148.913C166.783 147.013 169.182 144.613 171.082 143.613C173.782 142.314 177.083 141.913 198.979 141.913L202.479 145.113C204.878 147.313 206.378 149.813 207.078 152.913C207.678 155.413 208.378 158.713 208.678 160.413C208.978 162.014 210.278 169.714 211.578 177.413C213.378 188.211 213.677 191.612 212.678 192.113C211.978 192.513 209.878 192.913 207.979 192.913C204.479 192.913 204.478 192.813 203.278 187.213C202.578 184.013 201.379 178.613 200.779 175.113C199.78 170.314 199.079 168.914 197.779 168.913C196.38 168.913 195.88 170.014 195.38 174.113C195.08 177.015 195.079 194.714 195.279 213.413C195.479 232.112 196.08 248.711 196.479 250.413C197.079 252.813 196.679 254.013 194.38 256.813C192.78 258.712 188.78 261.513 185.48 263.113C182.182 264.613 179.183 265.912 178.781 265.913C178.281 265.913 176.482 266.513 174.782 267.313C172.983 268.013 167.883 269.513 163.483 270.513C157.184 272.013 151.584 272.413 137.486 272.413C123.388 272.313 117.887 271.913 111.988 270.513C107.889 269.513 103.191 268.113 101.49 267.413C99.8906 266.713 96.2908 265.313 93.4912 264.413C90.7919 263.513 86.6922 262.513 84.4922 262.213C81.1928 261.713 79.9916 262.114 77.4922 264.113C74.493 266.613 74.4928 266.613 76.1924 270.013C77.0923 271.913 78.8925 274.413 80.1924 275.613C81.4924 276.813 84.2917 278.813 86.4912 279.913C88.691 281.113 93.1907 282.813 96.4902 283.813C99.7899 284.813 104.79 286.313 107.489 287.013C110.989 288.013 118.788 288.413 133.486 288.413C150.484 288.413 155.784 288.013 161.483 286.613C165.383 285.613 172.582 283.413 177.481 281.713C182.481 280.013 188.481 277.813 190.98 276.713C193.481 275.713 199.78 272.713 204.979 270.113C210.178 267.613 218.277 263.212 222.977 260.313C227.676 257.513 233.976 253.412 237.075 251.313C240.075 249.112 245.874 244.913 249.773 241.913C253.773 238.913 261.272 232.013 266.472 226.613C271.67 221.314 276.17 217.314 276.471 217.913C276.77 218.414 274.97 222.914 272.471 227.913C269.971 232.813 266.771 238.813 265.271 241.113C263.872 243.513 260.672 248.113 258.173 251.413C255.673 254.713 249.574 261.513 244.574 266.613C239.575 271.713 231.876 278.513 227.477 281.713C223.077 284.913 217.878 288.513 215.978 289.613C214.078 290.813 208.878 293.513 204.479 295.713C200.08 297.913 193.98 300.412 190.98 301.313C187.981 302.312 184.581 303.413 183.48 303.913C182.38 304.313 177.481 305.513 172.482 306.513C165.583 308.013 159.083 308.413 143.985 308.413C128.687 308.413 122.787 308.013 116.488 306.613C112.089 305.613 107.59 304.413 106.489 303.913C105.389 303.513 102.49 302.613 99.9902 301.913C97.4905 301.213 91.8907 298.913 87.4912 296.813C83.0922 294.713 77.6933 291.914 75.4932 290.613C73.2935 289.413 68.3937 286.213 64.4941 283.713C60.6946 281.113 53.6956 275.313 48.9961 270.713C44.2969 266.113 38.5975 260.413 36.3975 257.913C34.0978 255.413 31.1978 251.613 29.7979 249.413C28.398 247.213 26.6983 244.713 25.8984 243.813C25.0985 243.013 23.5985 240.713 22.5986 238.813C21.4986 236.912 18.2989 230.713 15.3994 224.913C12.5998 219.113 8.89964 210.113 7.2998 204.913C5.60006 199.713 3.80054 193.113 3.10059 190.413C2.50066 187.613 1.60089 181.613 1.00098 176.913C0.501049 172.213 6.75422e-06 164.713 0 151.913L7.2998 158.413C11.1983 161.912 14.7973 164.812 15.2988 164.913C15.6998 164.914 17.4998 165.914 19.2988 167.213C20.9989 168.513 28.9981 172.813 36.9971 176.713C44.9961 180.513 53.4954 184.613 55.9951 185.713C58.4948 186.813 61.5944 188.013 62.9941 188.413C64.3945 188.813 68.694 190.713 72.4932 192.513C76.3926 194.313 80.892 195.813 85.4912 195.913L84.6914 189.613C84.2915 186.213 83.9922 177.012 83.9922 154.913H81.4922C80.0927 154.913 78.7933 155.414 78.5928 156.113C78.3927 156.814 77.8921 159.614 77.4922 162.413C77.1922 165.113 76.4921 168.713 75.9922 170.413C75.5923 172.013 74.8928 174.613 74.5928 176.113C73.9929 178.713 73.6919 178.913 69.793 178.613C65.5939 178.413 65.4938 178.313 65.5938 174.913C65.594 173.012 67.0939 163.712 68.8936 154.413C71.0265 143.081 72.8265 136.314 74.293 134.113C75.393 132.313 77.7929 130.113 79.3926 129.413C81.4927 128.413 86.3937 128.013 105.989 127.913L114.089 135.413ZM152.684 175.913C152.483 175.914 151.784 176.414 150.984 177.113C149.884 178.113 149.584 182.414 149.784 199.814C149.884 211.713 150.384 221.914 150.784 222.514C151.185 223.114 152.884 224.314 154.483 225.314C156.183 226.214 160.683 228.014 164.482 229.314C168.381 230.613 171.78 231.513 172.281 231.314C172.681 231.114 172.981 220.713 172.981 208.113V185.413C167.982 182.913 164.282 181.214 161.482 180.014C158.783 178.814 155.683 177.414 154.783 176.814C153.783 176.314 152.884 175.913 152.684 175.913ZM125.986 176.014C125.685 176.015 123.486 177.114 120.987 178.514C118.488 179.814 115.188 181.214 113.688 181.514C112.189 181.814 109.989 183.313 108.889 184.713C108.228 185.621 107.772 186.495 107.472 187.7C107.66 186.588 107.929 185.79 108.289 185.213C109.089 183.914 109.388 182.914 109.089 182.913C108.689 182.913 107.789 183.413 106.989 184.113C105.889 185.013 105.589 187.813 105.789 195.613C105.889 201.312 106.289 206.112 106.688 206.314C107.002 206.439 107.197 204.87 107.25 202.373C107.399 204.046 107.594 205.221 107.789 205.514C108.19 206.114 109.889 207.214 111.488 208.113C113.188 208.913 116.088 210.313 117.987 211.213C119.887 212.113 122.687 213.313 124.287 213.913C126.587 214.713 127.086 214.613 127.986 212.913C128.586 211.813 128.986 203.613 128.986 194.613C128.986 182.913 128.686 178.113 127.786 177.113C127.086 176.413 126.286 175.914 125.986 176.014Z" fill="#FFFFFE"/>
<path d="M142.485 0.0127903C145.785 -0.0871428 153.184 0.412829 158.983 1.01279C164.783 1.51284 174.182 3.31322 179.981 4.91318C185.781 6.51312 191.88 8.51318 193.479 9.41318C195.079 10.2131 196.88 10.9132 197.479 10.9132C198.081 10.914 200.98 12.1133 203.979 13.5128C206.978 14.9129 213.078 18.3132 217.478 20.9132C221.877 23.6134 230.576 30.0128 236.775 35.3126C242.872 40.6106 247.97 45.2104 247.974 45.6134C247.975 46.1145 250.075 48.6141 252.474 51.4132C254.973 54.1133 259.473 60.0133 262.372 64.4132C265.372 68.8131 269.772 76.2132 272.271 80.9132C274.671 85.613 277.47 91.6131 278.37 94.4132C279.37 97.113 280.471 100.113 280.971 100.913C281.371 101.715 283.07 108.014 284.77 114.913C286.469 121.813 288.37 131.513 288.97 136.413C289.47 141.313 289.97 150.213 289.97 156.113C289.97 162.112 289.569 167.812 288.97 168.913C288.37 170.013 287.57 170.913 286.97 170.913C286.37 170.913 285.37 169.413 284.57 167.613C283.77 165.913 281.47 162.113 279.37 159.413C277.27 156.613 274.871 153.713 274.071 152.813C273.171 152.013 269.371 148.713 265.472 145.613C261.573 142.514 258.074 139.915 257.473 139.913C256.873 139.913 255.772 139.213 254.973 138.513C254.172 137.712 248.273 134.413 241.975 131.213C235.676 128.013 227.676 124.113 224.276 122.613C220.779 121.114 217.68 119.914 217.277 119.913C216.777 119.913 214.277 118.813 211.478 117.413C208.778 116.113 205.779 115.014 204.979 114.913C204.179 114.913 202.578 114.313 201.479 113.613C200.379 112.913 197.479 111.713 194.979 111.013C192.48 110.313 187.98 108.813 184.98 107.713C181.981 106.513 177.981 105.013 176.281 104.313C174.482 103.513 172.283 102.914 171.482 102.913C170.683 102.913 169.783 102.513 169.482 101.913C169.182 101.313 168.182 100.913 167.282 100.913C166.282 100.813 163.683 100.013 161.483 98.9132C159.285 97.8136 156.885 97.0137 156.284 96.9132C155.584 96.9132 149.284 94.6131 142.285 91.9132C135.189 89.1146 129.092 86.9153 128.487 86.9132C127.887 86.9132 126.387 86.3133 124.987 85.6134C123.588 84.8134 120.688 83.7132 118.488 82.9132C116.289 82.2132 111.389 80.1129 107.489 78.213C103.69 76.313 98.5898 73.2126 96.29 71.3126C92.9909 68.7129 91.8906 67.013 91.3906 64.1134C90.9908 61.2137 91.3912 59.613 93.3906 56.6134C94.7906 54.6134 97.8905 51.7129 100.29 50.213C102.59 48.713 105.89 46.7125 107.489 45.8126C109.09 45.0125 112.989 43.413 115.988 42.4132C118.988 41.5132 122.487 40.3126 123.787 39.8126C124.988 39.3125 130.588 38.4129 136.286 37.713C144.185 36.8131 148.885 36.813 157.284 37.713C163.183 38.4129 168.782 39.3126 169.782 39.8126C170.683 40.3126 174.882 41.3132 178.981 41.9132C184.98 42.8131 186.981 42.8129 189.28 41.713C191.08 40.9129 192.38 39.3129 192.88 37.4132C193.28 35.7132 193.18 33.2126 192.58 31.5128C191.98 29.9129 190.38 27.6132 188.98 26.4132C187.581 25.3132 183.781 23.2132 180.481 21.9132C175.182 19.8132 172.882 19.5128 160.483 19.5128C152.485 19.4128 144.185 20.013 140.985 20.713C137.986 21.4129 132.387 22.7134 128.487 23.6134C124.588 24.5133 119.988 25.8127 118.288 26.5128C116.489 27.3125 114.689 27.9127 114.288 27.9132C113.787 27.914 110.388 29.4132 106.489 31.3126C102.69 33.1124 97.6903 35.5126 95.4902 36.5128C93.2905 37.5128 87.5915 40.6128 82.6924 43.3126C77.894 46.1119 73.1947 48.9122 72.1934 49.4132C71.2935 50.0131 68.4937 51.8133 65.9941 53.4132C63.4949 55.1128 60.7947 57.0123 59.9941 57.8126C59.1944 58.6124 57.3948 59.9126 55.9951 60.8126C54.5954 61.7125 50.5955 64.6128 46.9961 67.3126C43.3966 70.1125 35.3969 76.8133 29.0977 82.4132C22.899 87.9126 16.3001 94.1124 14.5996 96.213C12.9004 98.2122 11.1006 99.9119 10.5 99.9132C9.90007 99.9132 9.79988 98.7129 10.2998 96.713C10.7003 94.9121 13.9002 87.8125 17.3994 80.9132C20.799 74.0133 26.4981 64.6131 30.0977 59.9132C33.5974 55.2131 40.4968 47.3124 45.4961 42.3126C50.3956 37.3127 57.8948 30.8125 61.9941 27.8126C66.0937 24.7127 72.6928 20.5125 76.4922 18.3126C80.2917 16.2127 85.9916 13.4133 88.9912 12.1134C91.9905 10.8135 95.3902 9.41325 96.4902 8.91318C97.5905 8.41308 100.49 7.31264 102.989 6.51279C105.489 5.81275 110.589 4.41272 114.488 3.51279C118.388 2.61281 124.888 1.51277 128.987 1.01279C133.087 0.512848 139.186 0.112784 142.485 0.0127903Z" fill="#FFFFFE"/>
<path d="M132.187 139.813C135.885 135.813 136.186 135.613 140.785 136.213C143.785 136.613 146.285 137.613 147.785 139.113C149.485 140.813 149.984 142.514 149.984 146.113C149.984 150.313 149.584 151.214 146.485 153.913C144.186 155.913 141.886 156.913 139.786 156.913C137.986 156.913 135.286 156.013 133.786 154.913C132.186 153.813 130.286 151.513 129.486 149.913C128.687 148.213 128.087 146.213 128.187 145.413C128.287 144.613 130.087 142.112 132.187 139.813Z" fill="#FFFFFE"/>
<path d="M181.481 111.613C182.581 111.413 184.081 111.313 184.781 111.513C185.381 111.713 186.28 111.912 186.78 111.813C187.181 111.814 189.181 113.314 191.18 115.113C194.679 118.213 194.979 118.814 194.979 124.113C194.979 129.212 194.679 130.213 192.28 132.213C190.681 133.513 188.18 134.912 186.48 135.313C184.781 135.713 181.981 135.613 179.981 135.013C178.082 134.413 175.782 133.213 174.882 132.213C173.982 131.213 172.782 129.013 172.282 127.413C171.482 125.213 171.582 123.313 172.582 120.413C173.382 118.213 174.482 116.113 175.182 115.813C175.882 115.412 177.182 114.513 177.981 113.713C178.782 112.813 180.382 111.913 181.481 111.613Z" fill="#FFFFFE"/>
<path d="M93.4912 98.0128C94.0927 97.9139 96.3917 98.7139 98.79 99.6134C102.089 101.013 103.59 102.313 105.09 105.413C106.09 107.613 106.989 110.413 106.989 111.613C106.989 112.913 106.289 115.513 105.489 117.413C104.689 119.313 102.49 121.813 100.79 122.913C98.9904 124.013 95.8901 124.913 93.9902 124.913C92.0905 124.913 89.1909 124.113 87.4912 123.113C85.8914 122.113 83.3917 119.513 82.0918 117.313C80.2923 114.413 79.8927 112.613 80.3926 110.413C80.7927 108.713 82.1925 105.913 83.4922 104.113C84.7922 102.313 87.3918 100.213 89.1914 99.4132C90.991 98.7133 92.9913 98.0128 93.4912 98.0128Z" fill="#FFFFFE"/>
<path fill-rule="evenodd" clip-rule="evenodd" d="M543.342 179.813C549.741 179.813 557.24 180.313 560.14 181.013C563.939 181.813 566.439 183.113 569.039 185.713C571.039 187.713 573.138 191.113 573.738 193.313C574.338 195.513 574.838 201.813 574.838 207.313C574.838 212.812 574.438 219.013 573.838 221.113C573.338 223.113 571.638 226.313 570.139 228.013C568.639 229.713 565.839 231.813 563.839 232.713C561.639 233.613 555.338 234.413 531.843 235.313V179.813H543.342ZM539.842 227.014C557.64 227.014 559.839 226.713 561.839 225.213C563.539 223.913 564.838 221.413 565.738 217.913C566.638 214.413 567.039 209.514 566.639 204.014C566.439 199.314 565.639 194.413 565.039 193.213C564.439 192.013 562.839 190.313 561.639 189.413C560.238 188.513 555.74 187.714 549.841 187.314L540.241 186.713L539.842 227.014Z" fill="#FFFFFE"/>
<path fill-rule="evenodd" clip-rule="evenodd" d="M335.364 180.113C346.063 180.413 350.263 180.913 352.763 182.213C354.462 183.113 356.662 184.914 357.462 186.113C358.262 187.414 359.262 190.914 359.662 193.913C360.162 197.913 359.862 200.714 358.662 204.113C357.262 208.113 356.262 209.213 352.763 210.913C349.363 212.413 346.263 212.813 328.965 212.913L328.465 234.413L320.966 234.913L321.166 179.713L335.364 180.113ZM329.064 196.314L328.965 205.913C343.863 205.913 347.163 205.513 348.763 204.413C349.962 203.613 351.263 201.413 351.562 199.613C351.862 197.913 351.662 194.813 351.162 192.913C350.562 191.013 349.263 189.014 348.263 188.514C347.263 188.114 342.563 187.513 337.863 187.213L329.265 186.613L329.064 196.314Z" fill="#FFFFFE"/>
<path fill-rule="evenodd" clip-rule="evenodd" d="M382.259 180.013C393.957 180.313 397.158 180.813 400.357 182.413C402.457 183.513 404.856 185.614 405.656 187.113C406.356 188.714 406.956 193.114 406.956 197.413C406.956 204.613 406.856 205.014 403.557 208.413C401.657 210.313 399.458 211.912 398.558 211.913C397.658 211.913 396.958 212.214 397.058 212.613C397.06 213.017 399.758 217.815 403.057 223.113C406.255 228.512 408.955 233.311 408.956 233.913C408.955 234.413 407.055 234.813 400.558 234.413L388.458 213.413H376.46L375.96 234.913L368.461 234.413L368.261 207.013L368.161 179.713L382.259 180.013ZM383.358 187.014C379.959 187.014 376.859 187.313 376.359 187.613C375.959 188.014 375.66 192.314 375.76 197.113L375.859 206.014C391.757 206.014 395.057 205.514 396.657 204.514C398.557 203.214 398.856 202.113 398.856 197.213C398.856 194.013 398.557 190.913 398.157 190.213C397.757 189.513 395.557 188.514 393.357 188.014C391.158 187.414 386.658 187.014 383.358 187.014Z" fill="#FFFFFE"/>
<path d="M435.354 179.813C449.549 179.813 453.85 180.114 453.852 181.113C453.851 181.814 453.651 183.314 453.352 184.613C452.952 186.813 452.649 186.813 424.854 186.813V202.813H438.353C451.249 202.813 451.851 202.913 451.852 204.813C451.852 205.912 451.651 207.512 451.352 208.313C450.952 209.613 448.551 209.813 424.854 209.813V226.813H439.353C447.348 226.813 453.946 227.214 453.951 227.613C453.951 228.014 453.551 229.815 452.352 234.913L416.855 234.813V179.813H435.354Z" fill="#FFFFFE"/>
<path d="M501.846 179.813C504.042 179.813 505.841 180.113 505.846 180.313C505.846 180.613 501.846 192.214 496.946 206.113C492.048 220.011 487.849 232.109 487.447 233.113C487.047 234.413 485.746 234.813 478.349 234.913L468.949 208.613C463.751 194.216 459.352 181.818 459.051 181.113C458.751 180.214 459.851 179.813 467.35 179.813L474.849 201.313C479.047 213.208 482.746 222.507 483.048 222.113C483.45 221.707 486.649 212.809 490.247 202.313C493.746 191.915 496.945 182.517 497.246 181.613C497.746 180.314 498.947 179.813 501.846 179.813Z" fill="#FFFFFE"/>
<path d="M603.335 179.913C619.331 179.913 621.832 180.114 621.333 181.413C621.133 182.213 620.833 183.813 620.833 184.913C620.833 186.813 620.231 186.913 592.836 186.913V202.913H606.335C617.931 202.913 619.832 203.114 619.333 204.413C619.133 205.213 618.833 206.813 618.833 207.913C618.833 209.813 618.232 209.913 592.836 209.913V226.913L621.333 227.413L621.033 230.413C620.833 232.012 620.533 233.712 620.233 234.113C620.03 234.513 612.028 234.913 584.837 234.913V179.913H603.335Z" fill="#FFFFFE"/>
<path d="M634.132 179.913C637.231 179.813 637.932 180.715 650.63 199.413C657.928 210.112 664.327 218.912 664.828 218.913C665.528 218.91 665.828 211.706 665.828 179.913H673.827L673.327 234.413H669.828C666.429 234.413 666.128 234.013 639.331 195.113L638.331 234.413L630.832 234.913V179.913H634.132Z" fill="#FFFFFE"/>
<path d="M718.322 186.413L708.323 186.913C701.325 187.313 697.525 187.914 695.625 189.113C693.725 190.313 692.625 192.114 692.125 194.613C691.825 196.714 691.425 202.914 691.525 208.413C691.525 213.913 692.025 219.713 692.625 221.413C693.325 223.013 695.025 225.113 696.524 225.913C698.424 226.913 702.224 227.413 709.523 227.413C717.121 227.413 719.821 227.714 719.822 228.613C719.822 229.314 719.422 231.014 718.822 232.413C717.922 234.813 717.422 234.913 709.823 234.913C705.424 234.913 699.525 234.313 696.625 233.713C693.026 232.913 690.426 231.513 688.126 229.213C685.726 226.813 684.626 224.413 683.727 220.113C683.127 217.013 682.826 209.713 683.026 203.913C683.426 196.214 684.026 192.313 685.426 189.413C686.526 187.314 688.525 184.714 689.825 183.613C691.225 182.613 693.926 181.413 695.825 180.913C697.826 180.513 703.726 180.013 718.822 179.913L718.322 186.413Z" fill="#FFFFFE"/>
<path d="M735.82 234.913H727.821V179.913H735.82V234.913Z" fill="#FFFFFE"/>
<path fill-rule="evenodd" clip-rule="evenodd" d="M772.217 180.413L782.516 207.413C788.207 222.192 792.901 234.479 792.814 234.613C792.812 234.813 790.909 234.813 784.415 234.413L778.315 218.813L755.818 218.913L750.319 234.913H746.619C744.52 234.913 742.921 234.513 742.92 234.113C742.923 233.705 747.521 221.308 753.118 206.613L763.317 179.813L772.217 180.413ZM767.917 190.514C767.517 190.014 766.817 190.714 766.217 192.014C765.617 193.314 763.917 197.614 762.518 201.413L762.513 201.425C761.114 205.321 759.717 209.214 759.417 210.213C758.917 211.713 759.717 211.913 767.316 211.913C773.616 211.913 775.716 211.613 775.516 210.713C775.315 210.012 773.616 205.412 771.816 200.413C770.017 195.515 768.218 191.017 767.917 190.514Z" fill="#FFFFFE"/>
<path d="M520.844 234.813H512.845V179.813H520.844V234.813Z" fill="#FFFFFE"/>
<path d="M603.435 166.913C607.934 166.913 608.835 167.314 612.234 170.613C614.233 172.712 615.632 174.712 615.334 175.113C614.934 175.513 613.334 175.913 611.734 175.913C610.135 175.913 607.734 174.813 602.835 170.413L600.136 173.113C598.336 175.013 596.436 175.913 594.236 175.913C592.437 175.913 590.836 175.613 590.736 175.213C590.637 174.812 592.236 172.812 594.436 170.713C597.935 167.314 598.936 166.913 603.435 166.913Z" fill="#FFFFFE"/>
<path d="M361.661 75.0128C380.456 74.9128 381.958 75.0139 381.459 76.6134C381.259 77.614 380.559 81.1151 378.76 90.4132H361.262C343.765 90.4132 343.763 90.4137 341.863 92.9132C340.764 94.3131 339.864 96.6135 339.864 98.1134C339.964 99.7133 340.364 101.813 340.964 102.913C341.464 104.013 343.463 105.313 345.163 105.813C346.963 106.313 352.963 107.513 358.462 108.413C363.961 109.413 370.26 110.913 372.46 111.913C374.66 112.813 377.56 114.913 378.96 116.513C380.36 118.113 382.159 121.213 382.859 123.413C383.759 126.013 384.059 130.414 383.759 135.913C383.459 142.213 382.858 145.313 381.259 147.913C380.159 149.813 377.659 152.413 375.859 153.613C373.959 154.813 369.26 156.513 365.461 157.313C360.662 158.413 352.662 158.913 339.664 158.913C322.468 158.913 320.966 158.713 320.966 157.113C320.966 156.213 321.566 152.611 323.466 142.913H340.664C351.761 142.913 358.76 142.513 360.161 141.713C361.461 141.113 362.761 140.113 363.161 139.513C363.561 138.912 363.961 136.612 363.961 134.413C363.961 132.214 363.461 129.614 362.762 128.613C361.862 127.413 357.761 126.213 348.963 124.513C342.064 123.213 334.665 121.413 332.465 120.413C330.265 119.513 327.365 117.813 326.065 116.613C324.766 115.413 323.065 112.913 322.365 111.113C321.565 109.313 320.966 104.413 320.966 99.6134C320.966 93.9138 321.566 90.2131 322.766 87.4132C323.766 85.2133 326.365 82.0131 328.465 80.4132C330.565 78.7133 334.365 76.913 336.864 76.213C339.665 75.5131 349.564 75.0128 361.661 75.0128Z" fill="#FFFFFE"/>
<path d="M424.454 74.9132C441.235 74.9132 454.924 75.0135 454.951 75.1134C454.95 75.3172 454.451 78.116 453.852 81.4132C453.352 84.7125 452.652 88.2125 452.352 89.1134C451.951 90.713 450.148 90.9132 412.956 90.9132L413.456 107.413L432.153 107.613C449.349 107.913 450.951 108.014 450.852 109.613C450.851 110.614 450.251 114.115 448.352 123.413L412.956 123.913V141.913H434.453C454.448 141.913 455.951 142.014 455.451 143.613C455.251 144.614 454.551 148.114 453.951 151.413C453.352 154.712 452.652 157.711 452.352 158.113C452.145 158.613 438.842 158.913 393.958 158.913V74.9132H424.454Z" fill="#FFFFFE"/>
<path fill-rule="evenodd" clip-rule="evenodd" d="M489.747 75.1134C512.744 75.4134 513.645 75.5132 518.944 77.9132C521.944 79.4132 525.343 81.8133 526.543 83.4132C527.743 85.1131 529.243 88.2132 529.943 90.4132C530.743 92.9132 531.043 97.9134 530.843 104.013C530.443 112.212 530.042 114.113 527.843 117.513C526.443 119.613 523.543 122.512 521.344 123.813C519.245 125.212 517.246 126.411 516.944 126.513C516.644 126.713 520.644 133.813 525.644 142.413C530.74 150.909 534.938 158.107 534.942 158.413C534.94 158.713 530.237 158.913 513.944 158.913L498.146 129.413L484.948 128.913L484.448 158.413L465.95 158.913L466.15 74.713L489.747 75.1134ZM484.947 113.913C506.745 113.413 507.245 113.313 509.545 110.613C511.545 108.413 511.944 106.813 511.944 101.913C511.944 96.8135 511.545 95.5131 509.445 93.4132C507.046 91.0132 506.345 90.9132 495.946 90.9132H484.947V113.913Z" fill="#FFFFFE"/>
<path d="M641.431 158.413L621.933 158.913V74.9132H641.931L641.431 158.413Z" fill="#FFFFFE"/>
<path fill-rule="evenodd" clip-rule="evenodd" d="M678.727 75.1134C700.924 75.4134 702.724 75.613 707.424 77.713C710.123 79.013 713.223 80.8131 714.223 81.713C715.223 82.713 717.023 85.2133 718.223 87.4132C719.922 90.713 720.322 93.2139 720.322 101.913C720.422 111.213 720.122 113.014 717.923 117.413C716.423 120.313 713.923 123.413 711.923 124.713C709.923 126.013 706.123 127.713 703.424 128.513C700.224 129.413 693.924 129.913 673.928 129.913V158.913H654.93L655.029 116.813V74.8126L678.727 75.1134ZM673.927 114.913C685.925 114.913 691.225 114.413 693.425 113.913C695.625 113.413 698.224 112.013 699.224 110.713C700.523 109.013 701.024 106.713 700.924 102.113C700.924 96.8134 700.524 95.5132 698.424 93.4132C696.024 91.0134 695.324 90.9132 684.926 90.9132H673.927V114.913Z" fill="#FFFFFE"/>
<path d="M791.414 79.1134C791.114 81.4133 790.515 84.9135 789.415 90.3126L751.019 90.8126V107.813H769.517C781.11 107.813 788.009 108.213 788.015 108.813C788.015 109.413 787.414 113.014 785.515 123.913L751.019 123.813V141.813H793.015L792.515 144.113C792.315 145.314 791.514 149.215 789.515 158.913L731.021 158.813V74.8126H792.015L791.414 79.1134Z" fill="#FFFFFE"/>
<path d="M607.435 77.213C607.235 78.4131 606.534 82.0137 604.935 90.9132H588.437C575.939 90.9132 571.038 91.3134 568.438 92.4132C566.339 93.3132 564.24 95.2134 563.34 97.213C562.24 99.313 561.54 104.213 561.14 111.413C560.84 117.513 561.139 125.613 561.739 129.413C562.639 134.613 563.54 137.113 565.439 138.913C567.739 141.313 568.74 141.413 590.937 141.913V126.913H584.438C578.238 126.913 577.938 126.813 578.338 124.713C578.538 123.413 579.238 119.812 580.938 110.913L610.435 111.413V130.413C610.435 140.912 610.035 150.711 609.635 152.213C609.235 153.813 607.534 155.613 605.635 156.713C602.935 158.113 599.734 158.413 584.937 158.413C570.639 158.313 566.239 157.913 560.939 156.413C556.54 155.013 553.14 153.213 550.141 150.413C547.241 147.813 545.041 144.513 543.642 140.913C541.842 136.113 541.541 133.213 541.441 117.413C541.441 102.114 541.742 98.6131 543.342 93.9132C544.442 90.9132 546.941 86.7127 548.841 84.5128C550.841 82.4129 553.641 80.1126 555.141 79.3126C556.641 78.5126 560.241 77.3126 563.14 76.5128C566.84 75.513 574.341 75.0132 607.935 74.9132L607.435 77.213Z" fill="#FFFFFE"/>
</svg>
