<svg width="427" height="434" viewBox="0 0 427 434" fill="none" xmlns="http://www.w3.org/2000/svg">
<path fill-rule="evenodd" clip-rule="evenodd" d="M168.003 190.31V214.905C167.856 230.083 168.445 240.343 169.476 241.607C170.652 243.153 171.241 243.294 171.683 241.889C171.978 240.906 173.008 240.202 173.745 240.202C174.63 240.201 177.721 238.375 180.811 236.267C183.757 234.159 188.91 231.207 192.003 229.661C195.977 227.694 200.542 226.851 205.991 226.991C211.438 227.132 216.297 228.256 220.124 230.224C223.364 231.91 227.341 234.018 228.96 235.002C230.58 235.845 232.198 236.97 232.64 237.391C233.081 237.813 235.143 239.218 237.499 240.624C239.708 241.889 241.77 242.451 242.211 241.889C242.653 241.322 242.506 234.859 242.064 227.553C241.328 216.03 241.622 213.499 244.126 209.283C245.598 206.613 249.131 203.24 251.929 201.834C255.905 200.009 260.766 199.445 293.009 199.445L298.163 203.943C301.695 207.034 303.904 210.548 304.935 214.905C305.819 218.418 306.849 223.056 307.291 225.445C307.733 227.695 309.647 238.517 311.562 249.337C314.212 264.513 314.653 269.293 313.181 269.997C312.151 270.559 309.058 271.121 306.262 271.121C301.108 271.121 301.106 270.98 299.339 263.11C298.309 258.613 296.543 251.024 295.659 246.105C294.188 239.36 293.156 237.393 291.242 237.391C289.182 237.391 288.445 238.939 287.709 244.699C287.267 248.778 287.266 273.652 287.56 299.932C287.855 326.211 288.74 349.54 289.327 351.932C290.211 355.305 289.622 356.991 286.237 360.926C283.88 363.595 277.99 367.532 273.131 369.781C268.274 371.889 263.858 373.714 263.266 373.716C262.53 373.716 259.881 374.559 257.377 375.683C254.728 376.667 247.218 378.775 240.739 380.181C231.463 382.289 223.217 382.851 202.457 382.851C181.696 382.71 173.596 382.148 164.909 380.181C158.873 378.775 151.955 376.808 149.45 375.824C147.095 374.84 141.794 372.872 137.672 371.608C133.697 370.343 127.66 368.937 124.42 368.516C119.561 367.813 117.793 368.377 114.112 371.186C109.696 374.699 109.695 374.699 112.198 379.478C113.523 382.148 116.174 385.662 118.088 387.348C120.003 389.035 124.125 391.845 127.364 393.391C130.603 395.078 137.229 397.467 142.088 398.872C146.947 400.278 154.31 402.386 158.284 403.37C163.438 404.775 174.923 405.337 196.566 405.337C221.597 405.337 229.402 404.775 237.794 402.808C243.537 401.402 254.138 398.31 261.352 395.921C268.714 393.532 277.55 390.44 281.23 388.894C284.913 387.489 294.188 383.272 301.844 379.618C309.5 376.105 321.426 369.92 328.347 365.845C335.267 361.91 344.544 356.147 349.108 353.197C353.525 350.103 362.065 344.202 367.806 339.986C373.696 335.77 384.739 326.072 392.396 318.483C400.051 311.036 406.677 305.414 407.121 306.256C407.561 306.96 404.91 313.285 401.23 320.31C397.549 327.197 392.837 335.629 390.628 338.862C388.568 342.235 383.856 348.699 380.176 353.337C376.494 357.975 367.513 367.532 360.15 374.699C352.789 381.867 341.452 391.424 334.974 395.921C328.495 400.418 320.839 405.478 318.041 407.024C315.243 408.71 307.586 412.505 301.108 415.597C294.63 418.689 285.647 422.201 281.23 423.467C276.814 424.871 271.807 426.418 270.186 427.121C268.566 427.683 261.352 429.37 253.99 430.775C243.831 432.883 234.259 433.445 212.027 433.445C189.5 433.445 180.811 432.883 171.536 430.916C165.058 429.51 158.433 427.824 156.812 427.121C155.192 426.559 150.923 425.294 147.242 424.31C143.561 423.327 135.315 420.094 128.836 417.143C122.358 414.191 114.408 410.258 111.168 408.429C107.929 406.743 100.714 402.245 94.9715 398.732C89.3765 395.078 79.0701 386.927 72.1498 380.462C65.2299 373.997 56.8372 365.986 53.5976 362.472C50.2111 358.959 45.9407 353.618 43.8792 350.526C41.8178 347.435 39.3149 343.921 38.137 342.656C36.9591 341.532 34.7502 338.299 33.2778 335.629C31.658 332.957 26.9463 324.245 22.6766 316.094C18.554 307.943 13.1053 295.294 10.7494 287.986C8.24643 280.678 5.59653 271.402 4.56581 267.607C3.68238 263.672 2.35741 255.24 1.474 248.634C0.737825 242.029 9.946e-06 231.488 0 213.499L10.7494 222.634C16.4902 227.552 21.7899 231.628 22.5284 231.77C23.1189 231.771 25.7695 233.176 28.4187 235.002C30.9222 236.829 42.7015 242.872 54.4805 248.353C66.2595 253.694 78.7753 259.456 82.4562 261.002C86.1372 262.548 90.7015 264.234 92.7627 264.797C94.8249 265.359 101.156 268.029 106.751 270.559C112.493 273.089 119.118 275.197 125.891 275.337L124.713 266.483C124.124 261.705 123.684 248.774 123.684 217.716H120.002C117.941 217.716 116.028 218.42 115.733 219.402C115.438 220.387 114.701 224.322 114.112 228.256C113.67 232.051 112.639 237.11 111.903 239.499C111.314 241.748 110.284 245.402 109.842 247.51C108.959 251.164 108.516 251.445 102.774 251.024C96.591 250.743 96.4437 250.602 96.5909 245.824C96.5912 243.152 98.7999 230.082 101.45 217.013C104.591 201.087 107.241 191.576 109.401 188.483C111.021 185.953 114.555 182.861 116.91 181.878C120.003 180.472 127.22 179.91 156.075 179.77L168.003 190.31ZM224.837 247.229C224.541 247.23 223.511 247.933 222.333 248.916C220.713 250.321 220.272 256.366 220.566 280.82C220.713 297.543 221.45 311.879 222.039 312.722C222.629 313.566 225.131 315.252 227.486 316.658C229.989 317.922 236.616 320.452 242.21 322.279C247.951 324.105 252.957 325.37 253.694 325.09C254.283 324.809 254.725 310.191 254.725 292.483V260.58C247.364 257.067 241.915 254.679 237.792 252.993C233.818 251.306 229.253 249.339 227.927 248.495C226.455 247.793 225.131 247.229 224.837 247.229ZM185.522 247.371C185.079 247.372 181.841 248.917 178.161 250.885C174.481 252.712 169.621 254.679 167.413 255.101C165.205 255.522 161.966 257.629 160.346 259.597C159.372 260.873 158.701 262.101 158.259 263.795C158.536 262.232 158.932 261.11 159.462 260.299C160.64 258.474 161.081 257.068 160.64 257.067C160.051 257.067 158.726 257.77 157.548 258.753C155.928 260.018 155.486 263.953 155.781 274.916C155.928 282.925 156.517 289.671 157.105 289.955C157.567 290.13 157.854 287.925 157.932 284.416C158.152 286.767 158.439 288.419 158.726 288.831C159.316 289.674 161.818 291.22 164.173 292.483C166.676 293.607 170.947 295.575 173.743 296.84C176.541 298.105 180.664 299.791 183.02 300.634C186.407 301.759 187.142 301.618 188.467 299.229C189.351 297.683 189.94 286.159 189.94 273.51C189.94 257.067 189.498 250.321 188.173 248.916C187.142 247.932 185.964 247.23 185.522 247.371Z" fill="#4D45E1" fill-opacity="0.06"/>
<path d="M209.819 0.0179756C214.679 -0.122471 225.574 0.580193 234.114 1.42338C242.655 2.12616 256.495 4.65642 265.034 6.90502C273.575 9.15358 282.557 11.9645 284.911 13.2293C287.267 14.3536 289.919 15.3375 290.801 15.3375C291.688 15.3386 295.957 17.0241 300.373 18.991C304.789 20.9587 313.772 25.7375 320.251 29.3916C326.729 33.1864 339.539 42.1802 348.667 49.6286C357.645 57.0744 365.152 63.539 365.158 64.1054C365.16 64.8096 368.252 68.3226 371.785 72.2565C375.465 76.0512 382.091 84.3431 386.36 90.5267C390.778 96.7104 397.257 107.111 400.937 113.716C404.471 120.321 408.593 128.754 409.918 132.689C411.391 136.483 413.012 140.699 413.748 141.824C414.338 142.951 416.839 151.804 419.343 161.5C421.845 171.197 424.644 184.829 425.527 191.716C426.264 198.602 427 211.11 427 219.402C427 227.833 426.41 235.844 425.527 237.391C424.644 238.937 423.466 240.202 422.582 240.202C421.699 240.202 420.226 238.094 419.048 235.564C417.87 233.175 414.483 227.835 411.391 224.04C408.299 220.105 404.766 216.029 403.588 214.764C402.263 213.64 396.667 209.002 390.925 204.645C385.184 200.29 380.031 196.637 379.146 196.635C378.263 196.635 376.641 195.651 375.465 194.667C374.285 193.541 365.599 188.905 356.324 184.408C347.049 179.91 335.268 174.429 330.262 172.321C325.112 170.214 320.549 168.528 319.955 168.527C319.219 168.527 315.537 166.981 311.416 165.013C307.44 163.186 303.024 161.641 301.846 161.5C300.668 161.5 298.31 160.656 296.692 159.672C295.072 158.689 290.801 157.002 287.12 156.018C283.44 155.035 276.814 152.927 272.396 151.381C267.98 149.694 262.089 147.586 259.586 146.602C256.937 145.478 253.699 144.636 252.519 144.635C251.343 144.635 250.017 144.072 249.574 143.229C249.132 142.386 247.66 141.824 246.334 141.824C244.862 141.683 241.035 140.559 237.795 139.013C234.558 137.468 231.024 136.344 230.139 136.202C229.108 136.202 219.831 132.97 209.525 129.175C199.076 125.242 190.097 122.151 189.206 122.148C188.323 122.148 186.114 121.305 184.052 120.322C181.992 119.197 177.722 117.651 174.482 116.527C171.244 115.543 164.029 112.591 158.286 109.921C152.691 107.251 145.181 102.893 141.794 100.223C136.936 96.5696 135.316 94.1805 134.58 90.1054C133.991 86.0301 134.581 83.7805 137.525 79.5649C139.586 76.754 144.151 72.6777 147.685 70.5697C151.071 68.4616 155.931 65.6501 158.286 64.3853C160.643 63.2609 166.385 61.0129 170.801 59.6078C175.219 58.3429 180.371 56.6556 182.285 55.9529C184.054 55.2501 192.3 53.9857 200.691 53.0021C212.323 51.7374 219.244 51.7372 231.612 53.0021C240.298 53.9857 248.543 55.2502 250.016 55.9529C251.343 56.6556 257.526 58.0618 263.562 58.9051C272.396 60.1698 275.342 60.1695 278.728 58.6237C281.378 57.4993 283.293 55.2506 284.029 52.5808C284.618 50.1916 284.471 46.6772 283.587 44.2883C282.704 42.0398 280.348 38.8078 278.286 37.1213C276.226 35.5753 270.63 32.624 265.771 30.797C257.968 27.8456 254.581 27.4234 236.322 27.4234C224.545 27.2829 212.323 28.1264 207.61 29.1102C203.194 30.0938 194.949 31.9216 189.206 33.1864C183.465 34.4512 176.691 36.2773 174.188 37.2613C171.539 38.3852 168.888 39.2287 168.298 39.2294C167.56 39.2305 162.555 41.3375 156.813 44.0069C151.219 46.5364 143.856 49.9096 140.617 51.3153C137.377 52.7207 128.985 57.0775 121.771 60.8718C114.705 64.806 107.785 68.7415 106.311 69.4456C104.985 70.2887 100.863 72.8188 97.1818 75.0673C93.5015 77.4559 89.5253 80.1255 88.3464 81.2502C87.1688 82.3743 84.5188 84.2016 82.4576 85.4664C80.3965 86.7312 74.5064 90.8073 69.206 94.6016C63.9056 98.5366 52.1255 107.954 42.8496 115.824C33.7216 123.553 24.0043 132.266 21.5002 135.218C18.998 138.028 16.3477 140.417 15.4633 140.419C14.5799 140.419 14.4323 138.732 15.1685 135.921C15.7583 133.39 20.4703 123.412 25.6231 113.716C30.6292 104.019 39.0215 90.8077 44.3221 84.2024C49.4756 77.5969 59.6354 66.4932 66.9972 59.4664C74.212 52.4395 85.2551 43.3041 91.2915 39.088C97.3284 34.7314 107.046 28.8284 112.641 25.7366C118.236 22.7854 126.629 18.8511 131.046 17.0243C135.463 15.1974 140.469 13.2294 142.089 12.5266C143.709 11.8238 147.979 10.2772 151.659 9.15312C155.34 8.16928 162.851 6.20167 168.592 4.9369C174.335 3.67206 183.907 2.12606 189.943 1.42338C195.98 0.72076 204.961 0.158507 209.819 0.0179756Z" fill="#4D45E1" fill-opacity="0.06"/>
<path d="M194.654 196.495C200.1 190.874 200.543 190.592 207.315 191.436C211.733 191.998 215.415 193.403 217.623 195.511C220.127 197.901 220.862 200.291 220.862 205.349C220.862 211.252 220.273 212.518 215.709 216.311C212.324 219.122 208.937 220.528 205.844 220.528C203.194 220.528 199.218 219.263 197.009 217.717C194.653 216.171 191.855 212.938 190.677 210.69C189.5 208.301 188.617 205.49 188.764 204.365C188.911 203.241 191.562 199.726 194.654 196.495Z" fill="#4D45E1" fill-opacity="0.06"/>
<path d="M267.242 156.861C268.862 156.58 271.071 156.44 272.102 156.721C272.985 157.002 274.309 157.281 275.045 157.142C275.636 157.144 278.581 159.252 281.524 161.78C286.677 166.137 287.119 166.981 287.119 174.429C287.119 181.595 286.677 183.002 283.144 185.813C280.79 187.64 277.107 189.606 274.603 190.169C272.102 190.731 267.978 190.591 265.033 189.748C262.237 188.904 258.85 187.218 257.525 185.813C256.199 184.407 254.432 181.315 253.696 179.067C252.518 175.975 252.665 173.304 254.138 169.229C255.316 166.137 256.936 163.185 257.966 162.764C258.997 162.2 260.912 160.937 262.088 159.812C263.268 158.548 265.624 157.283 267.242 156.861Z" fill="#4D45E1" fill-opacity="0.06"/>
<path d="M137.672 137.747C138.558 137.608 141.943 138.732 145.475 139.997C150.333 141.964 152.543 143.791 154.752 148.147C156.224 151.239 157.548 155.174 157.548 156.861C157.548 158.688 156.517 162.342 155.339 165.012C154.161 167.682 150.923 171.196 148.42 172.742C145.77 174.288 141.204 175.553 138.407 175.553C135.609 175.553 131.339 174.428 128.837 173.023C126.481 171.618 122.8 167.964 120.886 164.872C118.236 160.796 117.647 158.266 118.383 155.174C118.973 152.785 121.034 148.85 122.948 146.32C124.862 143.791 128.69 140.839 131.34 139.715C133.99 138.732 136.936 137.747 137.672 137.747Z" fill="#4D45E1" fill-opacity="0.06"/>
</svg>
